{"title":"Little.Fockers.2010.cam.xvid.santas elfes.rg","uid":6065525,"size":749244892,"categoryP":"video","categoryS":"movies","magnet":"?xt=urn:btih:da38dabd86e0a6a1be2ff509ff4842f43cd6b62b&amp;dn=Little.Fockers.2010.cam.xvid.santas+elfes.rg&amp;tr=udp%3A%2F%2Ftracker.openbittorrent.com%3A80&amp;tr=udp%3A%2F%2Fopen.demonii.com%3A1337&amp;tr=udp%3A%2F%2Ftracker.coppersurfer.tk%3A6969&amp;tr=udp%3A%2F%2Fexodus.desync.com%3A6969","seeders":0,"leechers":1,"uploader":"SAFCukO09","files":52,"time":1293342442,"description":"Complete name : Little.Fockers.2010.cam.xvid.santas elfes.rg.avi\n\nFormat : AVI\n\nFormat/Info : Audio Video Interleave\n\nFile size : 699 MiB\n\nDuration : 1h 33mn\n\nOverall bit rate : 1 047 Kbps\n\nWriting application : VirtualDubMod 1.5.10.2 (build 2542/release)\n\nWriting library : VirtualDub build 32706/release\n\n\n\nVideo\n\nID : 0\n\nFormat : MPEG-4 Visual\n\nFormat profile : Advanced Simple@L5\n\nFormat settings, BVOP : Yes\n\nFormat settings, QPel : No\n\nFormat settings, GMC : No warppoints\n\nFormat settings, Matrix : Default (H.263)\n\nMuxing mode : Packed bitstream\n\nCodec ID : XVID\n\nCodec ID/Hint : XviD\n\nDuration : 1h 33mn\n\nBit rate : 909 Kbps\n\nWidth : 640 pixels\n\nHeight : 354 pixels\n\nDisplay aspect ratio : 16:9\n\nFrame rate : 25.000 fps\n\nColor space : YUV\n\nChroma subsampling : 4:2:0\n\nBit depth : 8 bits\n\nScan type : Progressive\n\nCompression mode : Lossy\n\nBits/(Pixel*Frame) : 0.160\n\nStream size : 607 MiB (87%)\n\nWriting library : XviD 1.2.1 (UTC 2008-12-04)\n\n\n\nAudio\n\nID : 1\n\nFormat : MPEG Audio\n\nFormat version : Version 1\n\nFormat profile : Layer 3\n\nMode : Joint stereo\n\nMode extension : MS Stereo\n\nCodec ID : 55\n\nCodec ID/Hint : MP3\n\nDuration : 1h 33mn\n\nBit rate mode : Constant\n\nBit rate : 128 Kbps\n\nChannel(s) : 2 channels\n\nSampling rate : 48.0 KHz\n\nCompression mode : Lossy\n\nStream size : 85.6 MiB (12%)\n\nAlignment : Split accross interleaves\n\nInterleave, duration : 40 ms (1.00 video frame)\n\nInterleave, preload duration : 500 ms\n\n\n\naudio:santas elfes.rg\n\n\n\nvideo:SERENiTY\n\n\n\nok it xmas time why of the groups take a break dont fear santas elfes.rg is here\n\n\n\nwe only come out once a year as santas elfes to plzs you in this great time of the year\n\n\n\nok now big thanks to SERENiTY for the nice video\n\n\n\nand big thanks to a guy in our group for the audio you know who you are\n\n\n\nwith that all said have a happy new year and p.s see you next xmas ","torrent":{"xt":"urn:btih:da38dabd86e0a6a1be2ff509ff4842f43cd6b62b","amp;dn":"Little.Fockers.2010.cam.xvid.santas+elfes.rg","amp;tr":["udp%3A%2F%2Ftracker.openbittorrent.com%3A80","udp%3A%2F%2Fopen.demonii.com%3A1337","udp%3A%2F%2Ftracker.coppersurfer.tk%3A6969","udp%3A%2F%2Fexodus.desync.com%3A6969"],"infoHash":"da38dabd86e0a6a1be2ff509ff4842f43cd6b62b","infoHashBuffer":{"type":"Buffer","data":[218,56,218,189,134,224,166,161,190,47,245,9,255,72,66,244,60,214,182,43]},"announce":[],"urlList":[]}}